# 220 vertices, 369 faces
v 14.7729 -0.991892 25.0449
vn -0.0666737 0.69255 -0.718282
v 14.6429 -0.994451 25.0545
vn -0.0623941 0.990322 -0.123974
v 14.2041 -0.142494 19.2995
vn -0.035734 0.99583 0.0839405
v 4.61396 -0.383185 0.312653
vn -0.0234304 0.887128 -0.460929
v 26.2405 -0.632012 6.00104
vn 0.454235 0.85222 0.2596
v 28.1944 -0.553376 0.291819
vn 0.0780279 0.961042 -0.265159
v 3.14051 -1.27491 -0.591679
vn -0.00273187 0.549903 -0.835224
v 13.9029 -1.00161 24.5708
vn -0.222512 0.952457 0.208122
v 27.2977 -0.890081 -0.349978
vn 0.0360512 0.747097 -0.663737
v 27.0153 -0.301443 1.41676
vn 0.113084 0.992164 -0.0531367
v 17.3769 -0.0546117 1.50009
vn 0.00027568 0.994565 -0.104116
v 23.377 -1.41062 12.7016
vn 0.694255 0.597391 0.401415
v 12.3421 -1.70732 24.5802
vn -0.517373 0.79654 0.312808
v 21.5436 -0.0707101 1.38463
vn 0.00521483 0.991448 -0.130401
v 9.05417 -0.370931 14.5115
vn -0.239471 0.960522 0.141602
v 15.5554 -0.314769 0.281617
vn -0.00301378 0.86572 -0.50052
v 19.5972 -0.134027 0.906442
vn 0.00849536 0.973587 -0.22816
v 23.9263 -0.445229 9.32474
vn 0.362334 0.910399 0.19972
v 15.8812 -1.20246 24.7389
vn 0.343352 0.938479 -0.0369608
v 14.8655 -6.80073 -3.17123
vn 0.000342325 0.422674 -0.906282
v 3.04759 -1.34533 7.82782
vn -0.526823 0.79568 0.298917
v 16.6683 -0.487524 -0.0125973
vn 0.00266187 0.797534 -0.603268
v 15.5543 -0.050073 17.7973
vn 0.0242178 0.998424 0.0506218
v 6.07677 -0.966832 12.0601
vn -0.468393 0.841972 0.267753
v 21.3723 -0.233119 12.3053
vn 0.202489 0.972072 0.118638
v 29.1449 -1.45125 2.65485
vn 0.679941 0.617649 0.395208
v 4.64039 -1.21113 10.2662
vn -0.497714 0.817516 0.289737
v 20.4841 -1.38477 17.6459
vn 0.69868 0.58561 0.410984
v 16.5209 -0.14734 0.824815
vn 0.00599945 0.962729 -0.2704
v 24.7378 -0.976707 9.61194
vn 0.581546 0.744291 0.328383
v 15.2792 -1.0372 24.9542
vn 0.210534 0.955154 0.208223
v 29.3597 -0.699935 0.391847
vn 0.0148385 0.987205 0.158762
v 25.0506 -8.67757 16.6655
vn 0.78481 0.422512 0.453385
v -0.205246 -2.00903 3.62968
vn -0.580724 0.743615 0.331356
v 22.0702 -0.862791 14.0007
vn 0.540457 0.78013 0.315125
v 4.30319 -1.75391 -0.817862
vn -0.000493444 0.438226 -0.898865
v 25.8774 -0.175522 3.18414
vn 0.134983 0.989761 0.0463937
v 25.6506 -9.1077 16.0274
vn 0.7849 0.422596 0.45315
v 14.1122 -1.05827 25.0421
vn -0.164924 0.966983 0.194276
v 20.2625 -2.19265 18.9094
vn 0.769613 0.457038 0.445882
v 6.01296 -0.404361 9.44746
vn -0.26969 0.9506 0.153709
v 5.6869 -0.685874 10.3557
vn -0.390602 0.893643 0.22098
v 29.4739 -0.849755 0.91092
vn -0.589814 0.731992 0.341039
v 5.52125 -0.282134 7.5786
vn -0.165403 0.982415 0.0866148
v 29.4844 -0.895046 1.02629
vn 0.0855507 0.938084 0.335679
v 29.4947 -0.998611 1.26619
vn 0.350708 0.856374 0.378982
v 24.6364 -0.451541 0.119576
vn 0.0204325 0.8556 -0.517234
v 16.9206 -1.38743 23.544
vn 0.60389 0.702627 0.376341
v 10.8135 -2.57701 23.883
vn -0.588185 0.731303 0.345303
v 6.80587 -0.213956 0.634368
vn -0.0208562 0.941017 -0.337716
v 29.4531 -1.39209 2.03776
vn -0.589854 0.731795 0.341393
v 0.551496 -1.32523 3.33085
vn -0.485089 0.830628 0.273397
v 29.4201 -1.54303 2.30429
vn 0.0804351 0.862909 0.498917
v 12.8108 -0.769971 -0.301576
vn 0.00051804 0.675881 -0.73701
v 24.4894 -0.147196 1.11502
vn 0.0462865 0.984677 -0.168134
v 28.7563 -0.837122 2.10025
vn 0.468503 0.842101 0.267155
v 24.8917 -0.435044 7.55097
vn 0.356392 0.912047 0.202868
v 13.2809 -0.982015 23.7552
vn -0.30367 0.924599 0.230003
v 7.4236 -0.464185 0.0498977
vn -0.0134316 0.808949 -0.587726
v -0.776716 -7.27189 13.1985
vn -0.612527 0.707172 0.353155
v 29.3346 -1.86054 2.837
vn -0.590043 0.731647 0.341382
v 9.9852 -0.855033 18.3742
vn -0.438751 0.857383 0.269057
v 1.09817 -0.66885 1.79435
vn -0.319916 0.936832 0.141422
v 2.16171 -1.43428 -0.668669
vn 0.147949 0.634784 -0.758394
v 29.2352 -0.681792 0.137259
vn -0.163251 0.985324 -0.0498622
v 29.2332 -2.18325 3.35337
vn 0.588798 0.63308 0.50252
v 24.2357 -0.0585828 2.05511
vn 0.0405724 0.998512 -0.0364497
v 12.8851 -1.45336 24.7748
vn -0.39053 0.917035 0.0808266
v 27.9413 -0.471934 1.76195
vn 0.244258 0.966237 0.0819958
v 8.00643 -0.0120315 2.4048
vn -0.0123107 0.999534 -0.0279144
v 28.8983 -0.669154 1.1836
vn 0.321128 0.931759 0.169413
v 13.3315 -0.29689 0.324867
vn 0.00244325 0.890239 -0.455487
v 24.9688 -1.68958 10.2668
vn 0.745762 0.511988 0.426271
v 7.07545 -1.01618 13.949
vn -0.482379 0.829749 0.280761
v 25.1437 -1.17028 -0.539424
vn 0.000105785 0.558479 -0.829519
v 9.4446 -1.40909 19.0386
vn -0.537013 0.780427 0.320236
v 4.35408 -1.04336 9.28617
vn -0.456093 0.849536 0.265081
v 4.48819 -0.748583 8.50465
vn -0.405272 0.883533 0.234785
v 19.2152 -0.0364598 1.7528
vn 0.00279773 0.997853 -0.0654305
v 9.7352 -0.432087 0.0774793
vn -0.00160541 0.853022 -0.521873
v 6.14551 -0.0900178 1.43295
vn -0.0308106 0.99453 -0.0998007
v 24.7796 -0.140656 4.96247
vn 0.124253 0.990315 0.0619431
v 12.1203 -0.123294 16.8376
vn -0.0895605 0.99354 0.0696918
v 19.8333 -0.120635 13.5123
vn 0.0960398 0.993658 0.0584882
v 1.7513 -1.16756 -0.532445
vn 0.588552 0.692805 0.416687
v 13.1588 -1.34129 24.8575
vn -0.0657909 0.691517 -0.719357
v 8.52026 -0.529787 -0.0517714
vn -0.00777055 0.74918 -0.66232
v 15.6515 -0.526985 22.2572
vn 0.126302 0.975361 0.180881
v 0.779372 -8.742 18.8339
vn -0.61137 0.707848 0.353806
v 14.4895 -0.194499 0.622093
vn -0.00254224 0.949322 -0.314296
v 1.55734 -1.0482 -0.456939
vn 0.270555 0.80011 -0.535373
v 28.7284 -1.64949 3.64381
vn 0.72326 0.55582 0.409829
v 6.68425 -1.51311 -0.705547
vn -0.00330053 0.455844 -0.890054
v 14.8025 -0.383443 21.6023
vn 0.000332119 0.991181 0.132514
v 1.56992 -0.699713 2.91934
vn -0.373696 0.904936 0.203572
v 0.186868 -0.890266 1.21606
vn 0.58867 0.692673 0.416739
v 17.245 -1.07929 22.4015
vn 0.518022 0.784 0.342048
v 1.37184 -0.941374 -0.372538
vn 0.0166008 0.772191 -0.635173
v 17.5445 -0.819675 21.2858
vn 0.468164 0.82574 0.314606
v 16.568 -0.586156 21.7345
vn 0.265632 0.939812 0.214924
v 0.799668 -0.700941 0.035856
vn 0.588492 0.692879 0.416649
v -0.064821 -1.38319 2.39096
vn -0.512117 0.81003 0.285636
v 1.11104 -0.80991 -0.222752
vn 0.0539796 0.844514 -0.532806
v 15.5993 -0.893943 -0.389714
vn 0.00179259 0.622472 -0.78264
v 27.3623 -0.639314 3.9356
vn 0.46317 0.851935 0.244295
v 1.02912 -0.774962 -0.165154
vn 0.0284031 0.953407 -0.300348
v 7.56262 -1.00759 -0.45259
vn -0.00279464 0.588775 -0.808293
v 3.84124 -1.94981 10.5499
vn -0.594298 0.727611 0.342626
v 14.7109 -0.86232 24.4047
vn -0.0173975 0.982714 0.184314
v 17.6305 -0.213507 0.56202
vn -0.00132274 0.938205 -0.346079
v 0.873345 -0.720176 -0.036221
vn 0.307679 0.95081 0.0359797
v -0.834044 -8.3724 15.3002
vn -0.612379 0.7071 0.353557
v 9.36044 -0.849696 -0.354651
vn -0.0100853 0.606003 -0.795399
v 8.66793 -1.2193 -0.56714
vn -0.00597183 0.499723 -0.866165
v 8.73524 -0.0469212 9.29362
vn -0.0572063 0.997943 0.028936
v 4.2574 -0.146252 1.91641
vn -0.0871257 0.994874 -0.0513312
v 17.9737 -0.668309 20.195
vn 0.395259 0.879476 0.265127
v 27.7601 -1.61843 5.3091
vn 0.71469 0.567832 0.408394
v 1.77752 -0.858159 4.03055
vn -0.399062 0.89041 0.218903
v 13.4327 -1.24158 24.9283
vn -0.264362 0.948926 -0.172197
v 25.2342 -0.362097 6.50077
vn 0.269099 0.951801 0.147172
v 16.0324 -1.10193 24.2467
vn 0.425902 0.857379 0.28898
v 14.6839 -1.43277 -0.668048
vn -0.001831 0.47208 -0.881554
v 7.80506 -1.2498 15.8558
vn -0.508725 0.807528 0.298492
v 26.0567 -9.26331 15.4691
vn 0.784906 0.422583 0.453152
v 18.0515 -1.48046 21.8526
vn 0.644275 0.655758 0.393563
v 3.49634 -0.576486 0.0134299
vn -0.0319697 0.805644 -0.591537
v 28.2463 -1.16759 -0.53384
vn -0.0298469 0.649617 -0.759675
v 16.4473 -1.46189 24.4361
vn 0.564458 0.745874 0.353637
v 18.3435 -0.23347 17.3578
vn 0.178994 0.975967 0.1243
v 3.94815 -0.56301 6.70239
vn -0.348502 0.917493 0.191711
v -0.349368 -9.20767 17.8102
vn -0.612378 0.707092 0.353574
v 23.0361 -0.0368545 5.47151
vn 0.0387065 0.999125 0.0158707
v 13.6913 -0.0576432 17.471
vn -0.0336902 0.998698 0.0382986
v 17.811 -0.699071 -0.241373
vn 0.00283556 0.726258 -0.687416
v 2.72182 -0.421542 0.554173
vn -0.0659316 0.96518 -0.253143
v 0.728919 -0.687543 0.113504
vn 0.219029 0.974489 0.0489692
v 8.51994 -0.72151 15.4184
vn -0.382476 0.896189 0.224849
v -0.644185 -9.12242 17.1291
vn -0.612375 0.707098 0.353566
v 14.8658 -0.00455506 15.7951
vn -0.00370889 0.999965 0.00755751
v 28.2884 -0.993116 3.31328
vn 0.570808 0.755723 0.321033
v 0.110958 -0.992877 1.49384
vn -0.165193 0.948603 0.269934
v 0.586813 -0.992276 2.35906
vn -0.42586 0.872514 0.239503
v 16.3459 -0.822846 22.9329
vn 0.346552 0.898958 0.267912
v 17.6518 -2.29888 23.5168
vn 0.721041 0.627749 0.293311
v -0.820577 -8.80815 16.195
vn -0.612369 0.707111 0.35355
v 17.2753 -2.00201 23.8382
vn -0.0656754 0.693474 -0.717482
v 19.9571 -0.434578 0.0717824
vn -0.00258 0.852488 -0.522741
v 11.6602 -7.68689 -3.58445
vn -1.73179e-05 0.422601 -0.906316
v 11.1209 -0.226722 16.6927
vn -0.169508 0.979808 0.106034
v 6.40454 -0.682592 -0.198996
vn -0.0123262 0.706341 -0.707765
v 4.65619 -0.107932 2.96831
vn -0.0685367 0.997553 0.0138252
v 26.9279 -1.30511 6.35048
vn 0.660276 0.651921 0.372872
v 25.9658 -0.657036 -0.133928
vn 0.0194441 0.7348 -0.678005
v 14.4382 -8.91254 -4.15598
vn -1.36411e-05 0.422491 -0.906367
v 12.1531 -0.875146 21.808
vn -0.353424 0.903507 0.242419
v 28.6148 -0.941569 -0.380266
vn -0.300033 0.911806 -0.28034
v 25.5587 -0.887996 7.96759
vn 0.522003 0.802255 0.289656
v 24.0013 -2.02729 12.2802
vn 0.768793 0.461283 0.442917
v 2.25613 -0.874641 -0.323908
vn -0.0077413 0.72711 -0.686477
v 15.5242 -1.09019 24.8803
vn 0.228109 0.969839 -0.0858936
v 13.8809 -8.78959 -4.09866
vn -6.43965e-06 0.422579 -0.906326
v 14.2538 -0.675797 -0.221461
vn 0.000996396 0.736412 -0.676533
v 13.0627 -8.48947 -3.9587
vn -5.19844e-06 0.422622 -0.906306
v 1.62229 -0.614351 0.139011
vn -0.0272388 0.909378 -0.415078
v 19.3226 -1.00259 18.9457
vn 0.579302 0.735134 0.352118
v 15.2812 -8.9454 -4.17131
vn -5.29729e-06 0.422577 -0.906327
v 16.1191 -8.78959 -4.09866
vn 1.52074e-06 0.422623 -0.906306
v 0.103448 -9.08553 18.3502
vn -0.612385 0.707084 0.353578
v 4.38369 -0.913172 -0.378152
vn -0.0120102 0.633435 -0.773703
v 16.7087 -0.190631 19.0782
vn 0.0984498 0.989336 0.107343
v 16.9373 -8.48947 -3.9587
vn 3.19015e-06 0.422621 -0.906307
v 27.0579 -8.28365 12.8214
vn 0.785195 0.422855 0.452396
v 13.9612 -0.729518 23.3193
vn -0.144842 0.972158 0.184197
v 24.3342 -1.15825 10.6621
vn 0.669092 0.632556 0.390114
v 13.7058 -1.15603 24.9855
vn -0.0651332 0.689943 -0.720928
v 24.7183 -0.593028 8.56888
vn 0.395017 0.890451 0.225962
v 3.51956 -0.220769 2.67124
vn -0.141896 0.989264 0.0349578
v 23.7421 -0.24372 8.21847
vn 0.212529 0.969884 0.118981
v 18.6352 -1.87754 21.3817
vn 0.73087 0.531292 0.428436
v 25.9043 -0.749271 6.98727
vn 0.473885 0.840992 0.261085
v 12.3387 -0.536905 20.6293
vn -0.228825 0.955538 0.185972
v 16.6635 -1.58568 24.2966
vn 0.556263 0.830446 0.0305128
v 15.6446 -1.12346 24.8371
vn -0.0634772 0.697332 -0.713931
v 18.9168 -0.514578 18.2012
vn 0.342923 0.914316 0.215476
v 5.45826 -1.23981 -0.575644
vn 0.00441618 0.492157 -0.870495
v 12.0617 -0.299183 18.7835
vn -0.162405 0.978936 0.123727
v 26.8537 -8.74364 13.604
vn 0.784904 0.422583 0.453155
v 18.4551 -7.65305 -3.56868
vn 0.000455657 0.422561 -0.906334
v 5.338 -1.45649 12.0916
vn -0.560225 0.762766 0.323012
v 14.9015 -0.99507 25.0299
vn 0.0361361 0.990592 -0.131994
v 26.3306 -1.42493 -0.663628
vn -0.00169225 0.50178 -0.864994
v 3.10381 -0.967739 6.84512
vn -0.445004 0.861042 0.246125
v 19.0326 -1.05472 -0.483273
vn 0.00473716 0.57859 -0.815605
v 0.661189 -0.680285 0.197093
vn 0.136723 0.986567 0.0894051
v 27.0814 -0.940516 5.3802
vn 0.59387 0.731666 0.33464
v 24.0197 -0.688045 10.1296
vn 0.523521 0.798391 0.297485
v 29.0663 -0.721054 -0.071076
vn -0.590728 0.731221 0.341112
v 12.5913 -0.109228 1.04533
vn -0.0048587 0.980651 -0.195702
v 13.937 -0.341463 21.0114
vn -0.0993861 0.986553 0.129753
v 16.7757 -1.27905 -0.596286
vn -0.00147856 0.507061 -0.861909
v 23.7602 -0.196212 0.743239
vn 0.0283781 0.969535 -0.243305
v 13.8419 -1.11915 25.0085
vn -0.234721 0.965633 -0.111618
v 26.4986 -0.423401 4.53644
vn 0.289837 0.945661 0.147375
v 0.886254 -0.620817 0.586863
vn -0.122615 0.991934 -0.0321287
v 2.769 -0.430136 3.62178
vn -0.256725 0.958461 0.124277
v 26.4525 -9.18338 14.709
vn 0.784901 0.42259 0.453153
v 27.6645 -2.18998 6.08606
vn 0.76697 0.463823 0.443425
v 27.6875 -0.545884 2.86602
vn 0.381119 0.904372 0.191988
v 0.535117 -0.685287 0.383462
vn 0.588542 0.692792 0.416722
v 11.0018 -0.550524 18.7742
vn -0.28797 0.93986 0.183676
v 0.476773 -0.697556 0.486259
vn 0.0786883 0.982609 0.168192
v 7.0818 -0.201493 9.48171
vn -0.140645 0.986958 0.0783145
v 8.25009 -1.6835 17.6285
vn -0.584769 0.736531 0.339953
v 0.369045 -0.740275 0.70942
vn 0.0819346 0.957294 0.277262
v 27.8608 -1.15674 4.42313
vn 0.627532 0.695159 0.350653
v 26.701 -0.385168 0.511513
vn 0.0593906 0.943757 -0.325262
v 17.7924 -1.85006 22.7829
vn 0.692633 0.581295 0.427031
v 18.7607 -0.329388 0.255135
vn 0.00433163 0.853458 -0.521144
v 21.6905 -0.218712 0.575477
vn 0.00384625 0.964064 -0.265642
f 142//142 205//205 215//215
f 44//44 178//178 206//206
f 139//139 89//89 146//146
f 165//165 136//136 160//160
f 63//63 143//143 95//95
f 144//144 97//97 100//100
f 192//192 9//9 128//128
f 58//58 120//120 8//8
f 214//214 49//49 76//76
f 171//171 100//100 130//130
f 12//12 175//175 197//197
f 131//131 119//119 52//52
f 181//181 57//57 158//158
f 35//35 197//197 18//18
f 177//177 158//158 57//57
f 154//154 9//9 192//192
f 3//3 94//94 23//23
f 127//127 136//136 4//4
f 6//6 128//128 9//9
f 115//115 83//83 134//134
f 89//89 49//49 214//214
f 134//134 3//3 23//23
f 211//211 15//15 138//138
f 94//94 200//200 174//174
f 109//109 31//31 88//88
f 37//37 67//67 133//133
f 157//157 128//128 6//6
f 69//69 204//204 209//209
f 36//36 7//7 170//170
f 150//150 83//83 213//213
f 138//138 74//74 124//124
f 10//10 55//55 67//67
f 71//71 6//6 69//69
f 7//7 64//64 160//160
f 151//151 4//4 50//50
f 169//169 89//89 139//139
f 17//17 148//148 219//219
f 66//66 61//61 53//53
f 28//28 166//166 180//180
f 185//185 25//25 130//130
f 151//151 93//93 186//186
f 20//20 189//189 172//172
f 79//79 14//14 220//220
f 29//29 11//11 110//110
f 188//188 125//125 207//207
f 149//149 64//64 36//36
f 194//194 20//20 201//201
f 14//14 67//67 55//55
f 28//28 40//40 12//12
f 152//152 116//116 178//178
f 41//41 131//131 78//78
f 106//106 111//111 205//205
f 34//34 60//60 108//108
f 152//152 178//178 44//44
f 23//23 171//171 84//84
f 69//69 56//56 71//71
f 150//150 15//15 211//211
f 116//116 205//205 178//178
f 43//43 32//32 45//45
f 54//54 80//80 72//72
f 68//68 156//156 62//62
f 139//139 132//132 169//169
f 158//158 30//30 153//153
f 191//191 31//31 109//109
f 190//190 89//89 214//214
f 93//93 151//151 107//107
f 199//199 80//80 50//50
f 211//211 182//182 187//187
f 25//25 179//179 84//84
f 89//89 108//108 60//60
f 30//30 18//18 197//197
f 212//212 205//205 195//195
f 138//138 15//15 41//41
f 108//108 89//89 190//190
f 220//220 202//202 47//47
f 180//180 218//218 145//145
f 190//190 74//74 24//24
f 12//12 35//35 28//28
f 166//166 35//35 185//185
f 117//117 99//99 166//166
f 144//144 31//31 122//122
f 200//200 94//94 3//3
f 175//175 73//73 30//30
f 8//8 174//174 58//58
f 124//124 62//62 138//138
f 161//161 184//184 19//19
f 135//135 22//22 110//110
f 145//145 40//40 180//180
f 159//159 33//33 173//173
f 15//15 213//213 41//41
f 182//182 174//174 200//200
f 62//62 13//13 68//68
f 17//17 11//11 79//79
f 175//175 12//12 159//159
f 165//165 160//160 98//98
f 28//28 35//35 166//166
f 6//6 217//217 10//10
f 90//90 72//72 199//199
f 93//93 149//149 36//36
f 20//20 162//162 164//164
f 6//6 32//32 65//65
f 203//203 39//39 8//8
f 9//9 217//217 6//6
f 217//217 55//55 10//10
f 114//114 93//93 107//107
f 97//97 99//99 100//100
f 111//111 101//101 137//137
f 120//120 176//176 203//203
f 122//122 19//19 129//129
f 208//208 66//66 92//92
f 50//50 59//59 151//151
f 23//23 94//94 171//171
f 100//100 99//99 117//117
f 59//59 107//107 151//151
f 159//159 40//40 33//33
f 73//73 153//153 30//30
f 81//81 136//136 116//116
f 37//37 69//69 10//10
f 172//172 168//168 20//20
f 76//76 62//62 124//124
f 133//133 82//82 37//37
f 78//78 42//42 41//41
f 47//47 148//148 220//220
f 118//118 216//216 196//196
f 216//216 118//118 92//92
f 26//26 46//46 56//56
f 186//186 170//170 151//151
f 47//47 154//154 75//75
f 117//117 185//185 100//100
f 64//64 7//7 36//36
f 103//103 106//106 165//165
f 27//27 190//190 24//24
f 72//72 80//80 199//199
f 14//14 202//202 220//220
f 150//150 211//211 187//187
f 95//95 206//206 63//63
f 38//38 125//125 188//188
f 22//22 135//135 201//201
f 151//151 170//170 4//4
f 174//174 109//109 94//94
f 143//143 63//63 142//142
f 11//11 29//29 90//90
f 194//194 219//219 148//148
f 124//124 74//74 190//190
f 109//109 39//39 2//2
f 59//59 50//50 87//87
f 2//2 191//191 109//109
f 119//119 206//206 95//95
f 205//205 116//116 136//136
f 48//48 183//183 145//145
f 50//50 4//4 136//136
f 185//185 18//18 25//25
f 11//11 17//17 110//110
f 57//57 179//179 177//177
f 102//102 52//52 143//143
f 187//187 200//200 83//83
f 58//58 68//68 120//120
f 212//212 215//215 205//205
f 107//107 59//59 87//87
f 161//161 19//19 122//122
f 60//60 112//112 89//89
f 63//63 205//205 142//142
f 153//153 196//196 5//5
f 115//115 44//44 213//213
f 215//215 96//96 142//142
f 126//126 218//218 180//180
f 163//163 72//72 90//90
f 47//47 55//55 217//217
f 92//92 26//26 141//141
f 111//111 137//137 205//205
f 24//24 138//138 42//42
f 137//137 195//195 205//205
f 97//97 218//218 126//126
f 105//105 196//196 216//216
f 5//5 105//105 204//204
f 70//70 199//199 81//81
f 154//154 192//192 75//75
f 202//202 14//14 55//55
f 7//7 127//127 170//170
f 160//160 64//64 91//91
f 167//167 162//162 20//20
f 194//194 75//75 189//189
f 187//187 182//182 200//200
f 199//199 50//50 81//81
f 150//150 187//187 83//83
f 217//217 154//154 47//47
f 11//11 199//199 70//70
f 123//123 54//54 163//163
f 104//104 22//22 201//201
f 216//216 141//141 105//105
f 98//98 103//103 165//165
f 88//88 100//100 171//171
f 114//114 20//20 93//93
f 5//5 204//204 121//121
f 58//58 182//182 156//156
f 189//189 20//20 194//194
f 188//188 33//33 38//38
f 36//36 170//170 186//186
f 134//134 140//140 115//115
f 71//71 46//46 45//45
f 168//168 167//167 20//20
f 209//209 105//105 141//141
f 71//71 32//32 6//6
f 150//150 213//213 15//15
f 179//179 25//25 18//18
f 219//219 135//135 110//110
f 65//65 198//198 157//157
f 27//27 77//77 21//21
f 55//55 47//47 202//202
f 30//30 197//197 175//175
f 201//201 20//20 123//123
f 34//34 108//108 21//21
f 69//69 6//6 10//10
f 201//201 123//123 104//104
f 153//153 208//208 118//118
f 156//156 182//182 211//211
f 18//18 185//185 35//35
f 75//75 192//192 189//189
f 171//171 94//94 88//88
f 73//73 208//208 153//153
f 90//90 16//16 163//163
f 24//24 42//42 27//27
f 71//71 45//45 32//32
f 124//124 190//190 214//214
f 47//47 75//75 194//194
f 135//135 194//194 201//201
f 87//87 114//114 107//107
f 141//141 26//26 56//56
f 84//84 179//179 82//82
f 204//204 105//105 209//209
f 53//53 46//46 26//26
f 193//193 52//52 21//21
f 69//69 37//37 204//204
f 115//115 213//213 83//83
f 177//177 30//30 158//158
f 81//81 116//116 152//152
f 3//3 83//83 200//200
f 159//159 73//73 175//175
f 41//41 213//213 44//44
f 142//142 102//102 143//143
f 217//217 9//9 154//154
f 113//113 80//80 54//54
f 23//23 133//133 140//140
f 194//194 135//135 219//219
f 180//180 40//40 28//28
f 22//22 16//16 29//29
f 66//66 26//26 92//92
f 78//78 77//77 27//27
f 67//67 79//79 133//133
f 152//152 70//70 81//81
f 44//44 131//131 41//41
f 219//219 110//110 17//17
f 68//68 58//58 156//156
f 68//68 86//86 120//120
f 177//177 18//18 30//30
f 112//112 146//146 89//89
f 181//181 5//5 121//121
f 12//12 197//197 35//35
f 33//33 40//40 145//145
f 105//105 5//5 196//196
f 131//131 193//193 78//78
f 141//141 216//216 92//92
f 17//17 79//79 220//220
f 140//140 11//11 70//70
f 104//104 163//163 16//16
f 36//36 186//186 93//93
f 109//109 88//88 94//94
f 153//153 181//181 158//158
f 39//39 109//109 8//8
f 163//163 104//104 123//123
f 208//208 92//92 118//118
f 182//182 58//58 174//174
f 173//173 73//73 159//159
f 160//160 127//127 7//7
f 37//37 82//82 121//121
f 83//83 3//3 134//134
f 140//140 79//79 11//11
f 166//166 185//185 117//117
f 65//65 157//157 6//6
f 48//48 129//129 183//183
f 34//34 21//21 52//52
f 120//120 203//203 8//8
f 208//208 73//73 173//173
f 205//205 165//165 106//106
f 118//118 196//196 153//153
f 47//47 194//194 148//148
f 136//136 165//165 205//205
f 102//102 34//34 52//52
f 76//76 124//124 214//214
f 122//122 129//129 48//48
f 206//206 131//131 44//44
f 138//138 62//62 211//211
f 188//188 173//173 33//33
f 123//123 113//113 54//54
f 82//82 179//179 121//121
f 48//48 144//144 122//122
f 167//167 155//155 162//162
f 195//195 210//210 212//212
f 199//199 11//11 90//90
f 4//4 170//170 127//127
f 20//20 164//164 149//149
f 20//20 149//149 93//93
f 82//82 133//133 84//84
f 56//56 46//46 71//71
f 179//179 57//57 121//121
f 2//2 1//1 191//191
f 29//29 110//110 22//22
f 64//64 85//85 91//91
f 114//114 123//123 20//20
f 99//99 97//97 126//126
f 14//14 79//79 67//67
f 76//76 13//13 62//62
f 21//21 78//78 193//193
f 23//23 84//84 133//133
f 114//114 113//113 123//123
f 140//140 70//70 115//115
f 220//220 148//148 17//17
f 185//185 130//130 100//100
f 95//95 143//143 52//52
f 115//115 152//152 44//44
f 134//134 23//23 140//140
f 179//179 18//18 177//177
f 133//133 79//79 140//140
f 126//126 166//166 99//99
f 21//21 108//108 27//27
f 121//121 204//204 37//37
f 141//141 56//56 209//209
f 97//97 144//144 48//48
f 31//31 144//144 88//88
f 183//183 147//147 145//145
f 181//181 153//153 5//5
f 145//145 218//218 48//48
f 122//122 31//31 161//161
f 190//190 27//27 108//108
f 163//163 54//54 72//72
f 84//84 171//171 130//130
f 49//49 13//13 76//76
f 81//81 50//50 136//136
f 67//67 37//37 10//10
f 156//156 211//211 62//62
f 104//104 16//16 22//22
f 48//48 218//218 97//97
f 119//119 131//131 206//206
f 130//130 25//25 84//84
f 8//8 109//109 174//174
f 192//192 128//128 189//189
f 114//114 87//87 113//113
f 50//50 80//80 87//87
f 69//69 209//209 56//56
f 178//178 205//205 206//206
f 180//180 166//166 126//126
f 53//53 51//51 46//46
f 208//208 173//173 66//66
f 113//113 87//87 80//80
f 115//115 70//70 152//152
f 100//100 88//88 144//144
f 119//119 95//95 52//52
f 26//26 66//66 53//53
f 160//160 136//136 127//127
f 91//91 98//98 160//160
f 206//206 205//205 63//63
f 42//42 78//78 27//27
f 90//90 29//29 16//16
f 138//138 24//24 74//74
f 41//41 42//42 138//138
f 121//121 57//57 181//181
f 159//159 12//12 40//40
f 77//77 78//78 21//21
f 131//131 52//52 193//193
